<svg width="293" height="287" viewBox="0 0 293 287" fill="none" xmlns="http://www.w3.org/2000/svg">
<path d="M21.4063 3.67142L266.325 3.67141C278.985 3.67141 289.276 13.8811 289.377 26.5409L291.421 283.629L34.6998 285.67C21.8968 285.772 11.4636 275.421 11.4636 262.618L11.4637 215.05L3.76998 202.865L3.76998 153.137" stroke="#6ECBF6" stroke-width="1.3173" stroke-linecap="round"/>
<path d="M7.13329 149.944C7.19329 145.743 0.592624 145.743 0.659298 149.944C0.599291 154.144 7.19996 154.144 7.13329 149.944Z" stroke="#6ECBF6" stroke-width="1.3173" stroke-miterlimit="10"/>
<path d="M15.0054 5.59863L10.841 9.76296V76.5764L3.89368 84.9173V146.744" stroke="#6ECBF5" stroke-width="1.3173" stroke-miterlimit="10"/>
<path d="M3.95237 128.437V84.6746L11.5269 76.7329V120.204L3.95237 128.437Z" fill="#6ECBF5"/>
<path d="M3.95234 136.788V132.147L11.5269 123.497V128.108L3.95234 136.788Z" fill="#6ECBF5"/>
<path d="M3.95234 145.021V140.381L11.5269 131.73V136.341L3.95234 145.021Z" fill="#6ECBF5"/>
<path d="M21.1548 3.80901C21.2148 -0.391415 14.6141 -0.391415 14.6808 3.80901C14.6208 8.00944 21.2214 8.00944 21.1548 3.80901Z" stroke="#6ECBF5" stroke-width="1.3173" stroke-miterlimit="10"/>
</svg>
