<svg width="46" height="142" viewBox="0 0 46 142" fill="none" xmlns="http://www.w3.org/2000/svg">
<path d="M22.5834 0V142M22.5834 87.4321C28.0402 81.7273 34.3403 76.9277 36.0393 69.0278C36.5478 66.6714 36.6594 64.1664 36.7338 61.6985C36.895 50.8345 36.957 61.5415 37.081 51M22.4877 54.0461C17.0309 59.7509 10.7308 64.5505 9.03176 72.4504C8.52329 74.8067 8.41168 77.3118 8.33727 79.7797C8.17604 90.6437 8.11404 79.9585 7.99002 90.5M37.1926 51.1334C45.601 50.7738 45.7498 38.5085 37.3166 38C28.561 37.9132 28.2261 50.7242 36.9446 51.1334H37.1926ZM7.87851 90.8666C-0.52988 91.2263 -0.678708 103.492 7.75448 104C16.5101 104.087 16.8449 91.2759 8.12652 90.8666H7.87851Z" stroke="white" stroke-width="3" stroke-miterlimit="10" style="mix-blend-mode:overlay"/>
</svg>
