<svg width="217" height="89" viewBox="0 0 217 89" fill="none" xmlns="http://www.w3.org/2000/svg">
<path d="M44.5771 54.9405C46.3882 53.8828 47.5567 52.2375 47.9073 50.7685H55.0349C54.626 55.1168 52.1722 58.5836 47.9657 61.0515C40.3122 65.4585 32.6587 63.0493 28.8027 56.3507C24.9468 49.6521 26.7579 41.7196 33.8272 37.6064C40.3706 33.8458 48.0825 36.0786 51.9385 42.8948C52.4643 43.8349 52.9317 44.7751 53.2238 45.7152L37.391 54.9405C39.6111 56.762 42.1233 56.3507 44.5771 54.9405ZM43.9929 44.4225C41.7728 42.2484 39.2606 42.4834 37.2157 43.5999C34.6451 45.0689 33.7103 47.3017 34.4114 49.9459L43.9929 44.4225Z" fill="white"/>
<path d="M70.634 62.579L65.8432 55.7629L61.0525 62.579H52.1721L61.403 49.4169L52.4642 36.666H61.3446L65.8432 43.0708L70.3419 36.666H79.2222L70.2834 49.4169L79.5144 62.579H70.634Z" fill="white"/>
<path d="M93.9452 44.1286V36.6661H88.6287V29.3799L80.9167 31.7303V53.2951C80.9167 60.5225 83.8379 63.6368 93.9452 62.5791V55.5279C90.5566 55.763 88.6287 55.5279 88.6287 53.2951V44.1286H93.9452Z" fill="white"/>
<path d="M113.283 36.1372V44.9512C110.07 44.4223 105.572 45.715 105.572 50.8859V62.5791H97.8596V36.666H105.572V41.3081C106.565 37.7825 110.012 36.1372 113.283 36.1372Z" fill="white"/>
<path d="M141.911 36.6661V62.5791H134.199V60.1699C132.505 62.1677 129.992 63.3429 126.545 63.3429C119.768 63.3429 114.218 57.4082 114.218 49.6519C114.218 41.8957 119.768 35.9609 126.545 35.9609C129.992 35.9609 132.505 37.1361 134.199 39.134V36.7248L141.911 36.6661ZM134.199 49.5932C134.199 45.715 131.628 43.2471 128.064 43.2471C124.501 43.2471 121.93 45.6563 121.93 49.5932C121.93 53.5301 124.501 55.9392 128.064 55.9392C131.628 55.9392 134.199 53.4713 134.199 49.5932Z" fill="white"/>
<path d="M150.558 24.7378H158.27V62.579H150.558V24.7378Z" fill="white"/>
<path d="M161.366 29.7323C161.366 27.2057 163.469 25.0903 165.981 25.0903C168.494 25.0903 170.597 27.2057 170.597 29.7323C170.597 32.259 168.494 34.3744 165.981 34.3744C163.469 34.3744 161.366 32.259 161.366 29.7323ZM162.125 36.666H169.837V62.579H162.125V36.666Z" fill="white"/>
<path d="M186.255 33.0234V25.5609C177.725 25.0321 173.752 29.3803 173.752 36.6665V62.5795H181.464V44.129H186.255V36.6665H181.464C181.464 33.6697 183.392 32.7883 186.255 33.0234Z" fill="white"/>
<path d="M204.658 54.9405C206.469 53.8828 207.638 52.2375 207.988 50.7685H215.116C214.707 55.1168 212.253 58.5836 208.046 61.0515C200.393 65.4585 192.74 63.0493 188.884 56.3507C185.028 49.6521 186.839 41.7196 193.908 37.6064C200.451 33.8458 208.163 36.0786 212.019 42.8948C212.545 43.8349 213.013 44.7751 213.305 45.7152L197.472 54.9405C199.633 56.762 202.204 56.3507 204.658 54.9405ZM204.074 44.4225C201.854 42.2484 199.341 42.4834 197.297 43.5999C194.726 45.0689 193.791 47.3017 194.492 49.9459L204.074 44.4225Z" fill="white"/>
<path d="M31.3735 71.2757V75.5064H30.8477V74.6838C30.4971 75.2714 29.9129 75.6239 29.1534 75.6239C27.9849 75.6239 26.9917 74.6838 26.9917 73.3911C26.9917 72.0984 27.9849 71.1582 29.1534 71.1582C29.9129 71.1582 30.4971 71.5108 30.8477 72.0984V71.2757H31.3735ZM30.7892 73.3911C30.7892 72.4509 30.0881 71.687 29.1534 71.687C28.2186 71.687 27.5175 72.4509 27.5175 73.3911C27.5175 74.3312 28.2186 75.0951 29.1534 75.0951C30.0881 75.0363 30.7892 74.3312 30.7892 73.3911Z" fill="#BDBFC1"/>
<path d="M39.0851 73.3911C39.0851 74.625 38.0919 75.6239 36.9235 75.6239C36.164 75.6239 35.5797 75.2714 35.2292 74.6838V77.2104H34.7034V71.2757H35.2292V72.0984C35.5797 71.5108 36.164 71.1582 36.9235 71.1582C38.0919 71.1582 39.0851 72.1571 39.0851 73.3911ZM38.5009 73.3911C38.5009 72.4509 37.7998 71.687 36.865 71.687C35.9303 71.687 35.2292 72.4509 35.2292 73.3911C35.2292 74.3312 35.9303 75.0951 36.865 75.0951C37.7998 75.0363 38.5009 74.3312 38.5009 73.3911Z" fill="#BDBFC1"/>
<path d="M41.8896 71.2168V71.7456C41.1885 71.7456 40.5458 72.0982 40.5458 73.1559V75.5063H40.02V71.2756H40.5458V71.9807C40.838 71.3931 41.3638 71.2168 41.8896 71.2168Z" fill="#BDBFC1"/>
<path d="M42.1233 73.3911C42.1233 72.1571 43.1165 71.1582 44.3434 71.1582C45.5703 71.1582 46.5635 72.0984 46.5635 73.3911C46.5635 74.6838 45.5703 75.6239 44.3434 75.6239C43.1165 75.6239 42.1233 74.625 42.1233 73.3911ZM46.0377 73.3911C46.0377 72.4509 45.3366 71.687 44.4018 71.687C43.467 71.687 42.7659 72.4509 42.7659 73.3911C42.7659 74.3312 43.467 75.0951 44.4018 75.0951C45.2782 75.0363 46.0377 74.3312 46.0377 73.3911Z" fill="#BDBFC1"/>
<path d="M51.6464 71.2754V75.3298C51.6464 76.6225 50.5948 77.2689 49.5432 77.2689C48.55 77.2689 47.8489 76.9163 47.5568 76.2112L48.0242 75.9174C48.2578 76.3287 48.6084 76.6813 49.5432 76.6813C50.5364 76.6813 51.1206 76.1525 51.1206 75.2711V74.6247C50.7701 75.2123 50.1858 75.5649 49.4263 75.5649C48.2578 75.5649 47.2646 74.6247 47.2646 73.332C47.2646 72.0393 48.2578 71.0991 49.4263 71.0991C50.1858 71.0991 50.7701 71.4517 51.1206 72.0393V71.2166L51.6464 71.2754ZM51.1206 73.3907C51.1206 72.4506 50.4195 71.6867 49.4847 71.6867C48.55 71.6867 47.8489 72.4506 47.8489 73.3907C47.8489 74.3309 48.55 75.0948 49.4847 75.0948C50.3611 75.036 51.1206 74.3309 51.1206 73.3907Z" fill="#BDBFC1"/>
<path d="M54.7428 71.2168V71.7456C54.0418 71.7456 53.3991 72.0982 53.3991 73.1559V75.5063H52.8733V71.2756H53.3991V71.9807C53.6912 71.3931 54.217 71.2168 54.7428 71.2168Z" fill="#BDBFC1"/>
<path d="M59.4167 71.2757V75.5064H58.8909V74.6838C58.5403 75.2714 57.9561 75.6239 57.1966 75.6239C56.0281 75.6239 55.0349 74.6838 55.0349 73.3911C55.0349 72.0984 56.0281 71.1582 57.1966 71.1582C57.9561 71.1582 58.5403 71.5108 58.8909 72.0984V71.2757H59.4167ZM58.8324 73.3911C58.8324 72.4509 58.1314 71.687 57.1966 71.687C56.2618 71.687 55.5607 72.4509 55.5607 73.3911C55.5607 74.3312 56.2618 75.0951 57.1966 75.0951C58.1314 75.0363 58.8324 74.3312 58.8324 73.3911Z" fill="#BDBFC1"/>
<path d="M66.6612 72.8619V75.506H66.1354V72.8619C66.1354 72.098 65.7264 71.6867 65.0837 71.6867C64.4411 71.6867 63.9153 72.098 63.9153 73.1557V75.506H63.3895V72.8619C63.3895 72.098 62.9805 71.6867 62.3963 71.6867C61.812 71.6867 61.1694 72.098 61.1694 73.1557V75.506H60.6436V71.2753H61.1694V71.9217C61.5199 71.3929 61.9289 71.2166 62.4547 71.2166C63.0389 71.2166 63.5063 71.5104 63.74 71.9805C64.0321 71.4516 64.5579 71.2166 65.0837 71.2166C66.0185 71.1578 66.6612 71.8042 66.6612 72.8619Z" fill="#BDBFC1"/>
<path d="M69.5823 73.3911C69.5823 72.1571 70.5755 71.1582 71.8024 71.1582C73.0293 71.1582 74.0225 72.0984 74.0225 73.3911C74.0225 74.6838 73.0293 75.6239 71.8024 75.6239C70.5755 75.6239 69.5823 74.625 69.5823 73.3911ZM73.4382 73.3911C73.4382 72.4509 72.7372 71.687 71.8024 71.687C70.8676 71.687 70.1665 72.4509 70.1665 73.3911C70.1665 74.3312 70.8676 75.0951 71.8024 75.0951C72.7372 75.0363 73.4382 74.3312 73.4382 73.3911Z" fill="#BDBFC1"/>
<path d="M75.6585 71.099V71.2753H76.8854V71.8041H75.6585V75.506H75.1327V71.8041H74.4316V71.2753H75.1327V71.099C75.1327 69.9826 75.7754 69.395 76.8854 69.4537V69.9826C76.0675 69.9238 75.6585 70.2764 75.6585 71.099Z" fill="#BDBFC1"/>
<path d="M26.8748 82.6161C26.8748 80.8533 28.1601 79.5605 29.9128 79.5605C30.9644 79.5605 31.8992 80.0894 32.425 80.912L31.2565 81.6171C31.0228 81.1471 30.497 80.912 29.9128 80.912C28.8612 80.912 28.2185 81.6171 28.2185 82.6748C28.2185 83.7325 28.9196 84.4376 29.9128 84.4376C30.497 84.4376 31.0228 84.1438 31.2565 83.7325L32.425 84.4376C31.8992 85.2602 30.9644 85.7891 29.9128 85.7891C28.1601 85.7303 26.8748 84.3788 26.8748 82.6161Z" fill="#C73047"/>
<path d="M37.1573 82.9684V85.5539H35.872V83.1447C35.872 82.6159 35.5214 82.3808 35.1125 82.3808C34.6451 82.3808 34.3529 82.6746 34.3529 83.2622V85.5539H33.0676V79.6191H34.3529V81.7345C34.5866 81.4407 34.9956 81.2056 35.5798 81.2056C36.4562 81.2644 37.1573 81.852 37.1573 82.9684Z" fill="#C73047"/>
<path d="M37.917 80.2067C37.917 79.7954 38.2675 79.4429 38.6765 79.4429C39.0855 79.4429 39.436 79.7954 39.436 80.2067C39.436 80.6181 39.0855 80.9706 38.6765 80.9706C38.2675 80.9706 37.917 80.6181 37.917 80.2067ZM38.0338 81.3819H39.3192V85.6126H38.0338V81.3819Z" fill="#C73047"/>
<path d="M40.1953 79.3843H41.4806V85.554H40.1953V79.3843Z" fill="#C73047"/>
<path d="M46.7387 79.6777V85.6125H45.4534V85.2011C45.1612 85.5537 44.7523 85.73 44.168 85.73C43.058 85.73 42.1816 84.7311 42.1816 83.4971C42.1816 82.2632 43.1164 81.2642 44.168 81.2642C44.7523 81.2642 45.1612 81.4405 45.4534 81.7931V79.6777H46.7387ZM45.4534 83.4971C45.4534 82.8508 45.0444 82.4394 44.4602 82.4394C43.8759 82.4394 43.467 82.8508 43.467 83.4971C43.467 84.1435 43.8759 84.5548 44.4602 84.5548C45.0444 84.5548 45.4534 84.1435 45.4534 83.4971Z" fill="#C73047"/>
<path d="M50.1859 81.2646V82.6749C49.6601 82.6161 48.9006 82.7924 48.9006 83.615V85.5541H47.6152V81.3234H48.9006V82.0873C49.0758 81.5584 49.6601 81.2646 50.1859 81.2646Z" fill="#C73047"/>
<path d="M52.7564 84.5554C53.1069 84.5554 53.399 84.4378 53.5743 84.2028L54.5675 84.7904C54.1585 85.378 53.5159 85.6718 52.7564 85.6718C51.2958 85.6718 50.4194 84.6729 50.4194 83.4389C50.4194 82.205 51.3542 81.2061 52.6395 81.2061C53.9248 81.2061 54.8012 82.1462 54.8012 83.4389C54.8012 83.6152 54.8012 83.7915 54.7428 83.9678H51.7632C51.9384 84.4378 52.289 84.5554 52.7564 84.5554ZM53.5159 83.0276C53.399 82.5575 52.9901 82.3812 52.6395 82.3812C52.1721 82.3812 51.8216 82.6163 51.7048 83.0276H53.5159Z" fill="#C73047"/>
<path d="M59.5337 82.9688V85.5543H58.2483V83.1451C58.2483 82.6163 57.8978 82.3812 57.4888 82.3812C57.0215 82.3812 56.7293 82.675 56.7293 83.2626V85.5543H55.5024V81.3236H56.7878V81.7349C57.0215 81.4411 57.4304 81.2061 58.0147 81.2061C58.8326 81.2648 59.5337 81.8524 59.5337 82.9688Z" fill="#C73047"/>
<path d="M60.9356 82.1458H59.9424L60.2929 79.6191H61.6367L60.9356 82.1458Z" fill="#C73047"/>
<path d="M64.85 84.3203C64.85 85.3192 64.032 85.7305 63.0973 85.7305C62.2793 85.7305 61.6367 85.378 61.2861 84.7316L62.3962 84.0853C62.513 84.4378 62.7467 84.5554 63.0973 84.5554C63.3894 84.5554 63.5647 84.4378 63.5647 84.3203C63.5647 83.8502 61.5198 84.0853 61.5198 82.6163C61.5198 81.6761 62.2793 81.2061 63.1557 81.2061C63.8568 81.2061 64.441 81.4999 64.7915 82.0874L63.7399 82.675C63.6231 82.44 63.4478 82.3225 63.1557 82.3225C62.922 82.3225 62.8051 82.3812 62.8051 82.5575C62.8051 83.0864 64.85 82.7338 64.85 84.3203Z" fill="#C73047"/>
<path d="M73.5553 85.6125H72.2116V82.1456L70.6926 84.6723H70.5173L68.9983 82.1456V85.6125H67.6545V79.6777H68.9983L70.5757 82.3219L72.1532 79.6777H73.4969L73.5553 85.6125Z" fill="#C73047"/>
<path d="M74.4316 80.2067C74.4316 79.7954 74.7822 79.4429 75.1911 79.4429C75.6001 79.4429 75.9507 79.7954 75.9507 80.2067C75.9507 80.6181 75.6001 80.9706 75.1911 80.9706C74.7822 80.9706 74.4316 80.6181 74.4316 80.2067ZM74.5485 81.3819H75.8338V85.6126H74.5485V81.3819Z" fill="#C73047"/>
<path d="M79.2806 81.2646V82.6749C78.7548 82.6161 77.9953 82.7924 77.9953 83.615V85.5541H76.71V81.3234H77.9953V82.0873C78.1705 81.5584 78.6964 81.2646 79.2806 81.2646Z" fill="#C73047"/>
<path d="M84.0131 81.3822V85.6129H82.7278V85.2015C82.4357 85.5541 82.0267 85.7304 81.4425 85.7304C80.3324 85.7304 79.4561 84.7315 79.4561 83.4975C79.4561 82.2636 80.3908 81.2646 81.4425 81.2646C82.0267 81.2646 82.4357 81.4409 82.7278 81.7935V81.3822H84.0131ZM82.7862 83.4975C82.7862 82.8512 82.3772 82.4398 81.793 82.4398C81.2088 82.4398 80.7998 82.8512 80.7998 83.4975C80.7998 84.1439 81.2088 84.5552 81.793 84.5552C82.3772 84.5552 82.7862 84.1439 82.7862 83.4975Z" fill="#C73047"/>
<path d="M84.7727 83.4975C84.7727 82.2048 85.7075 81.2646 86.9928 81.2646C87.8107 81.2646 88.5118 81.676 88.9208 82.3223L87.8107 82.9687C87.6939 82.6749 87.3433 82.4986 86.9928 82.4986C86.467 82.4986 86.058 82.9099 86.058 83.4975C86.058 84.0851 86.467 84.4964 86.9928 84.4964C87.3433 84.4964 87.6939 84.3201 87.8107 84.0264L88.9208 84.6727C88.5702 85.3191 87.8691 85.7891 86.9928 85.7891C85.7075 85.7304 84.7727 84.7315 84.7727 83.4975Z" fill="#C73047"/>
<path d="M89.3882 79.3843H90.6735V85.554H89.3882V79.3843Z" fill="#C73047"/>
<path d="M93.7115 84.5554C94.062 84.5554 94.3541 84.4378 94.5294 84.2028L95.5226 84.7904C95.1136 85.378 94.471 85.6718 93.7115 85.6718C92.2509 85.6718 91.3745 84.6729 91.3745 83.4389C91.3745 82.205 92.3093 81.2061 93.5946 81.2061C94.8799 81.2061 95.7563 82.1462 95.7563 83.4389C95.7563 83.6152 95.7563 83.7915 95.6979 83.9678H92.7183C92.8935 84.4378 93.2441 84.5554 93.7115 84.5554ZM94.471 83.0276C94.3541 82.5575 93.9452 82.3812 93.5946 82.3812C93.1272 82.3812 92.7767 82.6163 92.6598 83.0276H94.471Z" fill="#C73047"/>
<path d="M103.234 79.6777V85.6125H102.241L99.9626 82.3807V85.6125H98.6189V79.6777H99.6121L101.891 82.9095V79.6777H103.234Z" fill="#C73047"/>
<path d="M106.331 84.5554C106.681 84.5554 106.973 84.4378 107.149 84.2028L108.142 84.7904C107.733 85.378 107.09 85.6718 106.331 85.6718C104.87 85.6718 103.994 84.6729 103.994 83.4389C103.994 82.205 104.929 81.2061 106.214 81.2061C107.499 81.2061 108.376 82.1462 108.376 83.4389C108.376 83.6152 108.376 83.7915 108.317 83.9678H105.338C105.513 84.4378 105.863 84.5554 106.331 84.5554ZM107.09 83.0276C106.974 82.5575 106.565 82.3812 106.214 82.3812C105.747 82.3812 105.396 82.6163 105.279 83.0276H107.09Z" fill="#C73047"/>
<path d="M110.537 82.5573V84.0263C110.537 84.3788 110.829 84.4376 111.414 84.3788V85.554C109.778 85.7303 109.31 85.2014 109.31 84.0263V82.5573H108.609V81.3233H109.31V80.5007L110.596 80.0894V81.2645H111.472V82.4985L110.537 82.5573Z" fill="#C73047"/>
<path d="M118.191 81.3823L116.847 85.613H115.679L114.977 83.3801L114.276 85.613H113.108L111.764 81.3823H113.108L113.692 83.6739L114.335 81.3823H115.503L116.146 83.6739L116.73 81.3823H118.191Z" fill="#C73047"/>
<path d="M118.308 83.4975C118.308 82.2048 119.301 81.2646 120.528 81.2646C121.755 81.2646 122.748 82.2636 122.748 83.4975C122.748 84.7315 121.755 85.7304 120.528 85.7304C119.301 85.7304 118.308 84.7315 118.308 83.4975ZM121.521 83.4975C121.521 82.9099 121.112 82.4986 120.528 82.4986C119.943 82.4986 119.535 82.9099 119.535 83.4975C119.535 84.0851 119.943 84.4964 120.528 84.4964C121.112 84.4964 121.521 84.0851 121.521 83.4975Z" fill="#C73047"/>
<path d="M126.02 81.2646V82.6749C125.494 82.6161 124.734 82.7924 124.734 83.615V85.5541H123.449V81.3234H124.734V82.0873C124.91 81.5584 125.494 81.2646 126.02 81.2646Z" fill="#C73047"/>
<path d="M129.233 85.6125L127.889 83.7321V85.6125H126.604V79.6777H127.889V83.2033L129.175 81.323H130.635L129.116 83.4383L130.694 85.5537L129.233 85.6125Z" fill="#C73047"/>
<path d="M137.821 79.6777V85.6125H136.477V83.2621H134.608V85.6125H133.264V79.6777H134.608V81.9694H136.477V79.6777H137.821Z" fill="#C73047"/>
<path d="M138.581 83.4975C138.581 82.2048 139.574 81.2646 140.801 81.2646C142.028 81.2646 143.021 82.2636 143.021 83.4975C143.021 84.7315 142.028 85.7304 140.801 85.7304C139.574 85.7304 138.581 84.7315 138.581 83.4975ZM141.736 83.4975C141.736 82.9099 141.327 82.4986 140.742 82.4986C140.217 82.4986 139.749 82.9099 139.749 83.4975C139.749 84.0851 140.158 84.4964 140.742 84.4964C141.327 84.4964 141.736 84.0851 141.736 83.4975Z" fill="#C73047"/>
<path d="M146.935 84.3203C146.935 85.3192 146.117 85.7305 145.182 85.7305C144.365 85.7305 143.722 85.378 143.371 84.7316L144.481 84.0853C144.598 84.4378 144.832 84.5554 145.182 84.5554C145.475 84.5554 145.65 84.4378 145.65 84.3203C145.65 83.8502 143.605 84.0853 143.605 82.6163C143.605 81.6761 144.365 81.2061 145.241 81.2061C145.942 81.2061 146.526 81.4999 146.877 82.0874L145.825 82.675C145.708 82.44 145.533 82.3225 145.241 82.3225C145.007 82.3225 144.89 82.3812 144.89 82.5575C144.832 83.0864 146.935 82.7338 146.935 84.3203Z" fill="#C73047"/>
<path d="M152.135 83.4975C152.135 84.7902 151.2 85.7304 150.149 85.7304C149.564 85.7304 149.155 85.5541 148.863 85.2015V87.3169H147.578V81.3822H148.863V81.7935C149.155 81.4409 149.564 81.2646 150.149 81.2646C151.2 81.2646 152.135 82.2048 152.135 83.4975ZM150.85 83.4975C150.85 82.8512 150.441 82.4398 149.856 82.4398C149.272 82.4398 148.863 82.8512 148.863 83.4975C148.863 84.1439 149.272 84.5552 149.856 84.5552C150.441 84.4964 150.85 84.1439 150.85 83.4975Z" fill="#C73047"/>
<path d="M152.719 80.2067C152.719 79.7954 153.07 79.4429 153.479 79.4429C153.888 79.4429 154.238 79.7954 154.238 80.2067C154.238 80.6181 153.888 80.9706 153.479 80.9706C153.07 80.9706 152.719 80.6181 152.719 80.2067ZM152.836 81.3819H154.121V85.6126H152.836V81.3819Z" fill="#C73047"/>
<path d="M156.634 82.5573V84.0263C156.634 84.3788 156.926 84.4376 157.51 84.3788V85.554C155.874 85.7303 155.407 85.2014 155.407 84.0263V82.5573H154.706V81.3233H155.407V80.5007L156.692 80.0894V81.2645H157.568V82.4985L156.634 82.5573Z" fill="#C73047"/>
<path d="M162.476 81.3822V85.6129H161.19V85.2015C160.898 85.5541 160.489 85.7304 159.905 85.7304C158.795 85.7304 157.919 84.7315 157.919 83.4975C157.919 82.2636 158.853 81.2646 159.905 81.2646C160.489 81.2646 160.898 81.4409 161.19 81.7935V81.3822H162.476ZM161.19 83.4975C161.19 82.8512 160.781 82.4398 160.197 82.4398C159.613 82.4398 159.204 82.8512 159.204 83.4975C159.204 84.1439 159.613 84.5552 160.197 84.5552C160.781 84.4964 161.19 84.1439 161.19 83.4975Z" fill="#C73047"/>
<path d="M163.352 79.3843H164.638V85.554H163.352V79.3843Z" fill="#C73047"/>
<path d="M168.786 84.3203C168.786 85.3192 167.968 85.7305 167.033 85.7305C166.215 85.7305 165.572 85.378 165.222 84.7316L166.332 84.0853C166.449 84.4378 166.683 84.5554 167.033 84.5554C167.325 84.5554 167.5 84.4378 167.5 84.3203C167.5 83.8502 165.456 84.0853 165.456 82.6163C165.456 81.6761 166.215 81.2061 167.091 81.2061C167.793 81.2061 168.377 81.4999 168.727 82.0874L167.676 82.675C167.559 82.44 167.384 82.3225 167.091 82.3225C166.858 82.3225 166.741 82.3812 166.741 82.5575C166.741 83.0864 168.786 82.7338 168.786 84.3203Z" fill="#C73047"/>
<path d="M64.3243 17.569L63.74 10.8704C63.6232 9.40145 62.2794 8.28502 60.8188 8.40253L54.1586 8.99013C52.698 9.10765 51.5879 10.4591 51.7048 11.9281L51.9969 15.2774C51.9385 15.2774 51.9385 15.3362 51.88 15.3949L46.7388 19.7431C46.213 20.2132 45.8624 20.8596 45.804 21.5647C45.7456 22.2698 45.9793 22.9749 46.4466 23.5625L50.77 28.7334C51.5295 29.6148 52.698 29.9086 53.7496 29.556C54.0417 29.4385 54.3338 29.321 54.5675 29.0859L59.7088 24.7377C60.8188 23.7976 60.9941 22.0935 60.0593 20.9183L59.9425 20.7421L61.9873 20.5658C62.221 20.5658 62.4547 20.507 62.6884 20.3895C63.6816 19.9194 64.3827 18.803 64.3243 17.569ZM57.8977 13.6321C58.5403 13.5734 59.0661 14.0435 59.1246 14.6311C59.183 15.2774 58.7156 15.8063 58.1314 15.865C57.4887 15.9238 56.9629 15.4537 56.9045 14.8661C56.7876 14.2197 57.255 13.6909 57.8977 13.6321ZM54.8596 11.0467C55.5023 10.988 56.0281 11.458 56.0865 12.0456C56.145 12.692 55.6776 13.2208 55.0933 13.2796C54.4507 13.3383 53.9249 12.8683 53.8664 12.2807C53.808 11.6343 54.217 11.1055 54.8596 11.0467ZM59.0077 23.9738L53.8664 28.3221C53.1069 28.9684 51.9969 28.8509 51.3542 28.087L47.0309 22.9162C46.7388 22.5636 46.5635 22.0935 46.6219 21.6235C46.6803 21.1534 46.914 20.7421 47.2646 20.3895L52.4059 16.0413C52.5811 15.9238 52.7564 15.8063 52.9317 15.7475C53.6327 15.5125 54.3923 15.6887 54.9181 16.2763L59.2414 21.4472C59.8841 22.2111 59.7672 23.3275 59.0077 23.9738ZM61.111 18.3917C60.4683 18.4504 59.9425 17.9804 59.8841 17.3928C59.8256 16.7464 60.293 16.2176 60.8773 16.1588C61.5199 16.1001 62.0457 16.5701 62.1042 17.1577C62.1626 17.8041 61.7536 18.3329 61.111 18.3917Z" fill="#26C2EB"/>
<path d="M50.0691 21.0947C49.6601 20.6247 48.959 20.5659 48.4917 20.9772C48.0243 21.3885 47.9658 22.0936 48.3748 22.5637C48.7838 23.0338 49.4849 23.0926 49.9522 22.6812C50.4196 22.2699 50.4781 21.5648 50.0691 21.0947Z" fill="#26C2EB"/>
<path d="M51.8801 23.269C51.4712 22.799 50.7701 22.7402 50.3027 23.1515C49.8353 23.5628 49.7769 24.268 50.1858 24.738C50.5948 25.2081 51.2959 25.2669 51.7633 24.8556C52.1722 24.4442 52.2891 23.7391 51.8801 23.269Z" fill="#26C2EB"/>
<path d="M52.0554 25.2668C51.588 25.6781 51.5296 26.3832 51.9385 26.8533C52.3475 27.3233 53.0486 27.3821 53.516 26.9708C53.9834 26.5595 54.0418 25.8544 53.6328 25.3843C53.2823 24.9142 52.5812 24.8554 52.0554 25.2668Z" fill="#26C2EB"/>
<path d="M54.2171 19.0382C54.6845 18.6269 54.7429 17.9217 54.334 17.4517C53.925 16.9816 53.2239 16.9228 52.7565 17.3341C52.2892 17.7455 52.2307 18.4506 52.6397 18.9207C53.0487 19.3907 53.7497 19.4495 54.2171 19.0382Z" fill="#26C2EB"/>
<path d="M56.145 19.626C55.7361 19.1559 55.035 19.0971 54.5676 19.5085C54.1002 19.9198 54.0418 20.6249 54.4507 21.095C54.8597 21.565 55.5608 21.6238 56.0282 21.2125C56.4956 20.8012 56.554 20.0961 56.145 19.626Z" fill="#26C2EB"/>
<path d="M56.3786 21.6236C55.9112 22.0349 55.8528 22.74 56.2618 23.2101C56.6707 23.6802 57.3718 23.7389 57.8392 23.3276C58.3066 22.9163 58.365 22.2112 57.9561 21.7411C57.5471 21.3298 56.846 21.271 56.3786 21.6236Z" fill="#26C2EB"/>
<path d="M41.9482 20.1545C46.3299 16.9815 49.9522 11.9281 48.3747 11.1643C47.7905 11.8694 45.7457 14.2198 43.2919 15.7475C43.2919 15.7475 46.2715 13.1621 47.7905 11.1055C49.1343 9.34271 50.0106 6.75728 48.7253 6.52224C47.6152 7.87372 45.0446 10.8705 42.9998 12.1632C42.9998 12.1632 45.2783 9.81279 47.9074 6.581C49.1343 5.22953 51.588 0.29372 49.0174 1.70395C42.9998 4.93573 36.8069 11.8694 38.5012 12.7508C39.7865 13.4559 41.8897 16.2176 41.1886 19.1556C39.0854 16.5701 37.2158 15.2774 35.5216 15.395C34.8205 15.4537 34.2362 15.5712 33.5936 15.8063C32.542 16.2176 31.724 16.8052 30.9645 17.3928C30.205 17.9804 29.5039 18.568 28.4523 18.9205C27.4007 19.2731 26.5243 19.3319 25.5895 19.3319C24.6548 19.3319 23.6616 19.3906 22.5515 19.8019C21.9673 20.037 21.383 20.3308 20.8572 20.7421C19.5135 21.741 18.8708 23.9151 18.9293 27.2644C16.5339 25.5016 16.3586 22.0348 16.8844 20.6246C17.5855 18.8618 8.41301 17.5691 1.75272 18.9793C-1.11003 19.5669 3.9144 21.6822 5.72553 21.976C9.75676 22.7399 13.0285 23.0337 13.0285 23.0337C10.6331 23.3863 6.71873 22.7399 5.02445 22.4461C4.20652 23.445 6.54346 24.8553 8.70513 25.3841C11.2173 25.9717 15.1317 26.0305 15.1317 26.0305C12.269 26.5005 9.23094 26.0305 8.29617 25.8542C7.59508 27.4994 13.6127 29.0272 18.9877 28.6159C19.163 31.4363 19.7472 34.3743 20.273 35.7258C20.8572 37.4886 21.792 38.3112 22.4931 38.6638C23.311 39.0751 24.1874 39.0751 25.0637 38.7813C26.1738 38.37 27.167 37.4298 27.9265 36.0784C29.3287 33.8455 30.614 32.0239 32.9509 31.2013C35.2879 30.3199 37.4495 30.9075 39.9617 31.7301C41.3639 32.3177 42.7661 32.3765 43.8761 31.9652C44.7525 31.6714 45.3951 31.025 45.7457 30.2024C46.0378 29.4973 46.2715 28.2633 45.5704 26.5593C45.0446 25.0315 43.6424 22.3874 41.9482 20.1545ZM43.5256 30.9663C42.6492 31.2601 41.4808 31.2013 40.2539 30.7312C37.8585 29.9674 35.4047 29.2035 32.6588 30.2024C29.9129 31.2013 28.5107 33.3754 27.167 35.4908C26.5243 36.7247 25.648 37.4886 24.83 37.7824C23.4279 38.3112 21.9089 37.5473 21.2078 35.3145C20.273 32.6703 18.754 23.3863 21.4999 21.3884C22.0257 21.0359 22.4931 20.7421 22.9605 20.5658C24.8885 19.8607 26.5827 20.507 28.8613 19.6844C31.1398 18.8618 32.0161 17.2753 33.9441 16.5701C34.4115 16.3939 34.9373 16.2763 35.58 16.2176C38.9685 15.9826 43.7593 24.0914 44.6941 26.7356C45.6288 28.9097 44.9862 30.4374 43.5256 30.9663Z" fill="#26C2EB"/>
<path d="M36.5147 23.9155C35.9888 24.1505 35.6967 24.7381 35.872 25.267C36.0473 25.7958 36.6899 26.0896 37.2157 25.9133C37.7416 25.7371 38.0337 25.0907 37.8584 24.5619C37.6831 24.033 37.0989 23.7392 36.5147 23.9155Z" fill="#26C2EB"/>
<path d="M35.872 22.0354C36.3978 21.8591 36.6899 21.2128 36.5147 20.6839C36.3394 20.1551 35.6967 19.8613 35.1709 20.0376C34.6451 20.2139 34.353 20.8602 34.5282 21.3891C34.7035 21.9766 35.2878 22.2704 35.872 22.0354Z" fill="#26C2EB"/>
<path d="M33.8858 22.6817C33.3599 22.9167 33.0678 23.5043 33.2431 24.0919C33.4184 24.6207 34.061 24.9145 34.5868 24.7383C35.1126 24.562 35.4048 23.9156 35.2295 23.3868C35.0542 22.7992 34.47 22.5054 33.8858 22.6817Z" fill="#26C2EB"/>
<path d="M37.7417 21.271C37.2159 21.506 36.9238 22.0936 37.0991 22.6224C37.2743 23.1513 37.917 23.4451 38.4428 23.2688C38.9686 23.0925 39.2607 22.4462 39.0855 21.9173C38.9102 21.3885 38.3259 21.0947 37.7417 21.271Z" fill="#26C2EB"/>
<path d="M27.5176 25.5019C27.5176 25.4431 27.4592 25.3843 27.4008 25.3843H27.2255L25.7649 25.9132L25.2391 24.4442C25.2391 24.3854 25.1807 24.3267 25.1222 24.3267H24.947L24.3627 24.5617L23.7785 24.7967C23.7201 24.7967 23.6617 24.8555 23.6617 24.9143V25.0905L24.1875 26.5595L22.7853 27.0296C22.7269 27.0296 22.6685 27.0884 22.6685 27.1471V27.3234L23.0774 28.4986C23.0774 28.5574 23.1358 28.6161 23.1943 28.6161H23.3695L24.8301 28.0873L25.3559 29.5563C25.3559 29.615 25.4144 29.6738 25.4728 29.6738H25.6481L26.2323 29.4387L26.8165 29.2037C26.875 29.2037 26.9334 29.145 26.9334 29.0862V28.9099L26.4076 27.4409L27.8682 26.9121C27.9266 26.9121 27.985 26.8533 27.985 26.7946V26.6183L27.5176 25.5019Z" fill="#26C2EB"/>
<path d="M21.383 17.158C23.0773 16.9817 25.2389 16.5116 27.4006 15.689C29.5623 14.8664 31.5487 13.9262 32.9508 12.9273C34.7035 11.6933 35.4046 10.5769 35.0541 9.51922C34.7035 8.52031 33.4182 8.10899 31.2566 8.28527C29.5623 8.46155 27.4006 8.93162 25.2389 9.75426C23.0773 10.5769 21.0909 11.517 19.6887 12.516C17.936 13.7499 17.2349 14.8664 17.5854 15.924C17.9944 16.9229 19.2213 17.3343 21.383 17.158ZM25.531 10.6357C29.8544 9.04914 33.7103 8.69659 34.1193 9.87178C34.5283 11.047 31.3734 13.2798 27.0501 14.8664C22.7267 16.4529 18.8708 16.8054 18.4618 15.6302C18.0528 14.455 21.2077 12.2222 25.531 10.6357Z" fill="#26C2EB"/>
</svg>
