<svg width="205" height="56" viewBox="0 0 205 56" fill="none" xmlns="http://www.w3.org/2000/svg">
<path d="M68.9867 16.9186L70.2801 4.41211H76.277L74.6077 20.5056L72.3387 20.5187C70.3427 20.5274 68.7808 18.8518 68.9822 16.9186H68.9867Z" fill="white"/>
<path d="M76.6127 16.9179L78.1746 1.47891L84.1894 1.46582L83.903 4.36771L86.9686 4.38081L86.5166 8.77947L83.4331 8.79256L82.6812 16.1237H85.6886L85.268 20.5223L79.9468 20.5136C77.9643 20.5136 76.4158 18.8423 76.6127 16.9179Z" fill="white"/>
<path d="M88.0067 8.77986L88.9107 0H94.9076L94.4019 4.85685C94.1692 7.078 92.2538 8.77114 89.9624 8.77986H88.0112H88.0067Z" fill="white"/>
<path d="M110.813 4.36765L110.347 8.80994L101.325 8.79685L101.146 10.2762H106.472C108.459 10.2762 110.012 11.9475 109.81 13.8763L109.43 17.5724C109.26 19.248 107.81 20.5222 106.087 20.5179L94.1378 20.5048L94.5719 16.1498H103.545L103.697 14.6705L98.4162 14.653C96.4336 14.6486 94.8897 12.9773 95.0866 11.0529L95.4715 7.31318C95.6415 5.6375 97.087 4.36328 98.81 4.36328H110.804L110.813 4.36765Z" fill="white"/>
<path d="M136.009 4.41211L134.339 20.5231H128.356L128.701 17.5601L125.335 20.5056H123.057C121.07 20.5056 119.522 18.8343 119.719 16.9099L120.69 7.362C120.86 5.68632 122.305 4.41211 124.028 4.41211H136.009ZM129.56 8.79768H126.539L125.787 16.1113L128.839 16.1244L129.56 8.79331V8.79768Z" fill="white"/>
<path d="M21.0651 30.9394L20.6534 34.9279L12.7321 34.9104L12.929 33.0558H9.02657L8.04648 42.595L11.9668 42.6124L12.1817 40.6793L20.0627 40.6619L19.5525 45.414C19.3735 47.0809 17.9324 48.3508 16.2094 48.3464L3.35189 48.3333C1.36934 48.3333 -0.183591 46.662 0.0133222 44.7376L1.4857 30.2849C1.65576 28.6092 3.10128 27.335 4.82427 27.335H17.7176C19.7046 27.335 21.2576 29.0106 21.0562 30.9351L21.0651 30.9394Z" fill="white"/>
<path d="M42.7303 30.9394L41.231 45.4009C41.0565 47.0722 39.611 48.3464 37.888 48.3464L25.12 48.3333C23.1374 48.3333 21.5845 46.662 21.7814 44.7376L23.2538 30.2849C23.4238 28.6092 24.8693 27.335 26.5923 27.335H39.3872C41.3742 27.335 42.9272 29.0106 42.7258 30.9394H42.7303ZM34.6926 33.0558H30.7902L29.8101 42.595L33.7304 42.6125L34.6926 33.0515V33.0558Z" fill="white"/>
<path d="M64.404 30.9351L62.6184 48.3508L54.7956 48.3682L56.3664 33.0515H52.4057L50.8573 48.3464L43.0927 48.329L45.2318 27.335H61.0699C63.057 27.335 64.6099 29.0063 64.4085 30.9351H64.404Z" fill="white"/>
<path d="M90.9561 27.2773L90.3474 33.0724L74.1066 33.0549L73.8694 34.9881H81.9428C83.9299 34.9881 85.4828 36.6594 85.2814 38.5882L84.5833 45.4044C84.4132 47.08 82.9632 48.3543 81.2402 48.3499L64.7308 48.3324L65.2992 42.6552H77.0066L77.2035 40.7221L69.1927 40.6959C67.2102 40.6915 65.6662 39.0202 65.8631 37.0958L66.5657 30.2272C66.7358 28.5516 68.1813 27.2773 69.9043 27.2773H90.9516H90.9561Z" fill="white"/>
<path d="M108.486 44.7502L110.289 27.3389H118.112L115.937 48.3329L111.847 48.3547C109.851 48.3634 108.289 46.6877 108.49 44.7546L108.486 44.7502Z" fill="white"/>
<path d="M139.441 30.8823L138.815 36.8955H130.952L131.346 33.051H127.443L125.836 48.346L118.049 48.3285L119.907 30.2233C120.077 28.5477 121.522 27.2734 123.245 27.2734H136.103C138.09 27.2734 139.643 28.9491 139.441 30.8779V30.8823Z" fill="white"/>
<path d="M161.505 27.3389L159.33 48.3503H151.525L151.977 44.4884L147.586 48.3329H143.487C141.5 48.3329 139.952 46.6616 140.148 44.7371L141.621 30.2888C141.791 28.6131 143.236 27.3389 144.959 27.3389H161.509H161.505ZM153.091 33.0554H149.148L148.168 42.5945L152.147 42.612L153.087 33.051L153.091 33.0554Z" fill="white"/>
<path d="M205 27.3389L202.36 53.0326C202.19 54.7039 200.744 55.9782 199.021 55.9782H186.213C184.23 55.9782 182.677 54.3112 182.87 52.3868L183.076 50.3184L194.801 50.3009L195.016 48.3896L186.991 48.3765C185.009 48.3765 183.46 46.7008 183.657 44.7764L185.447 27.3389H193.27L191.699 42.6164H195.584L197.155 27.3563L205 27.3389Z" fill="white"/>
<path d="M182.919 30.9394L182.507 34.9279L174.586 34.9104L174.783 33.0558H170.88L169.9 42.595L173.82 42.6124L174.035 40.6793L181.916 40.6619L181.406 45.414C181.227 47.0809 179.786 48.3508 178.063 48.3464L165.206 48.3333C163.223 48.3333 161.67 46.662 161.867 44.7376L163.339 30.2849C163.509 28.6092 164.955 27.335 166.678 27.335H179.571C181.558 27.335 183.111 29.0106 182.91 30.9351L182.919 30.9394Z" fill="white"/>
<path d="M88.5617 27.2783L85.6349 55.9786L93.4756 55.9961L95.0599 42.2721C94.59 41.9186 94.129 41.4735 93.677 40.9848L90.7412 42.2154L90.692 42.0714C90.7054 42.1019 90.9694 41.7572 90.9873 41.7354C91.2201 41.4081 91.4393 41.0677 91.6586 40.7317C92.2315 39.8502 92.7864 38.96 93.3682 38.0829C93.6636 37.6378 93.9589 37.1883 94.3572 36.8218C94.8048 36.4159 95.3731 36.1454 95.9102 35.8705C96.8366 35.3992 97.8569 35.4167 98.7072 35.9708C99.0921 36.2239 99.4725 36.5818 99.7321 36.9963C99.8574 37.1971 100.278 38.8771 100.672 38.2007C100.699 38.1527 100.743 38.1222 100.73 38.0567L99.2487 34.1643C99.2487 33.8239 99.4009 33.501 99.647 33.309C99.8842 33.1213 101.115 32.4406 101.383 32.3489C102.153 32.0871 102.198 32.7722 102.511 33.2653C102.833 33.7715 103.447 34.0683 103.254 34.8799C103.191 35.1461 102.851 35.9621 102.722 36.2152C102.69 36.2719 102.659 36.3287 102.605 36.3636L102.023 34.8668C101.831 34.4741 101.388 34.2384 101.021 34.5352L102.238 37.9476C102.386 38.4756 102.283 38.6851 101.988 39.1346C100.869 40.3695 100.596 40.5528 99.4725 41.7746C98.5193 42.8176 97.6153 43.1536 96.756 43.0358L96.1966 48.3464H102.963C104.686 48.3464 106.132 47.0722 106.302 45.3965L107.792 30.8696C107.989 28.9408 106.436 27.2695 104.454 27.2695H88.5752L88.5617 27.2783Z" fill="white"/>
</svg>
