<svg width="213" height="72" viewBox="0 0 213 72" fill="none" xmlns="http://www.w3.org/2000/svg">
<path d="M64.8098 41.9352L65.0201 40.9576L65.0208 40.9577L64.8098 41.9352ZM70.7197 42.4952L70.7049 43.4951L70.6973 43.495L70.6896 43.4948L70.7197 42.4952ZM97.2998 42.8652L96.3007 42.9079L96.2998 42.8866V42.8652H97.2998ZM107.89 42.9652L108.89 42.9751L108.889 43.0003L108.888 43.0254L107.89 42.9652ZM97.2998 42.6652H96.2998V42.6418L96.3009 42.6183L97.2998 42.6652ZM62.0501 20.158L61.8398 21.1357L61.8391 21.1355L62.0501 20.158ZM56.1402 19.598L56.155 18.5982L56.1626 18.5983L56.1703 18.5985L56.1402 19.598ZM29.5601 19.2281L30.5592 19.1853L30.5601 19.2067V19.2281H29.5601ZM18.9701 19.128L17.9702 19.1181L17.9704 19.093L17.9719 19.0679L18.9701 19.128ZM29.5601 19.428H30.5601V19.4515L30.559 19.4749L29.5601 19.428ZM1.16107 38.6052L2.15652 38.7005L2.1564 38.7018L1.16107 38.6052ZM3.17783 32.4452L3.86496 33.1718L3.8587 33.1776L3.17783 32.4452ZM8.70638 31.1152L8.68147 30.1155L8.69295 30.1152L8.70442 30.1152L8.70638 31.1152ZM117.983 31.0752L117.979 30.0752L118.005 30.0751L118.03 30.0764L117.983 31.0752ZM124.885 28.5852L125.884 28.6287L125.872 28.9092L125.715 29.1423L124.885 28.5852ZM158.89 17.0852H159.89V19.0852H158.89V18.0852V17.0852ZM124.885 22.0712L123.885 22.0731L124.885 22.0712ZM129.665 4.35535L128.665 4.36262V4.35535H129.665ZM124.095 6.56534L124.785 5.84177L124.807 5.86229L124.827 5.88405L124.095 6.56534ZM124.885 1.37533L125.375 2.24725L125.347 2.26264L125.319 2.27627L124.885 1.37533ZM129.665 4.16534H128.665L128.665 4.16103L129.665 4.16534ZM141.11 18.0613L141.1 19.0613L141.082 19.0611L141.064 19.0603L141.11 18.0613ZM183.36 25.0983L184.36 25.091V25.0983H183.36ZM188.93 22.8883L188.24 23.6118L188.218 23.5913L188.198 23.5696L188.93 22.8883ZM188.14 28.0783L187.65 27.2064L187.678 27.191L187.706 27.1773L188.14 28.0783ZM183.36 25.2883H184.36L184.36 25.2926L183.36 25.2883ZM196.6 31.0083L196.569 32.0078L196.486 32.0052L196.406 31.9891L196.6 31.0083ZM177.77 18.1083L177.78 17.1083L177.798 17.1085L177.816 17.1093L177.77 18.1083ZM49.9697 31.0852L50.661 30.3626C53.0486 32.6464 55.0536 34.9091 57.3743 36.885C59.6418 38.8156 62.0547 40.3198 65.0201 40.9576L64.8098 41.9352L64.5996 42.9129C61.1949 42.1806 58.4878 40.4598 56.0778 38.4079C53.721 36.4013 51.4908 33.924 49.2785 31.8078L49.9697 31.0852ZM64.8098 41.9352L65.0208 40.9577C66.8207 41.3461 68.7563 41.4356 70.7499 41.4957L70.7197 42.4952L70.6896 43.4948C68.7032 43.4349 66.5989 43.3443 64.5989 42.9127L64.8098 41.9352ZM70.7197 42.4952L70.7346 41.4953C79.4954 41.6253 88.8296 41.6751 97.3415 41.7753L97.3297 42.7752L97.318 43.7751C88.8298 43.6753 79.4641 43.6251 70.7049 43.4951L70.7197 42.4952ZM97.2998 42.8652L98.2989 42.8225C98.537 48.3891 106.561 48.3891 106.892 42.905L107.89 42.9652L108.888 43.0254C108.399 51.1413 96.6426 50.9013 96.3007 42.9079L97.2998 42.8652ZM107.89 42.9652L106.89 42.9553C106.905 41.4531 106.375 40.3852 105.625 39.679C104.86 38.9579 103.808 38.5608 102.718 38.5311C101.627 38.5014 100.553 38.8407 99.7474 39.5187C98.9581 40.1827 98.3688 41.2181 98.2987 42.7121L97.2998 42.6652L96.3009 42.6183C96.3958 40.5973 97.2215 39.0302 98.4597 37.9883C99.6814 36.9604 101.248 36.4903 102.772 36.5318C104.296 36.5734 105.835 37.1281 106.997 38.2236C108.175 39.3339 108.91 40.9473 108.89 42.9751L107.89 42.9652ZM97.2998 42.6652H98.2998V42.8652H97.2998H96.2998V42.6652H97.2998ZM76.8902 31.0081L76.1989 31.7307C73.8112 29.4468 71.8063 27.1841 69.4856 25.2082C67.2181 23.2776 64.8052 21.7735 61.8398 21.1357L62.0501 20.158L62.2603 19.1804C65.6649 19.9126 68.3721 21.6334 70.7821 23.6854C73.1389 25.692 75.369 28.1693 77.5814 30.2854L76.8902 31.0081ZM62.0501 20.158L61.8391 21.1355C60.0392 20.7471 58.1036 20.6577 56.11 20.5976L56.1402 19.598L56.1703 18.5985C58.1567 18.6584 60.261 18.749 62.261 19.1805L62.0501 20.158ZM56.1402 19.598L56.1253 20.5979C47.3645 20.4679 38.0303 20.4181 29.5184 20.318L29.5302 19.318L29.5419 18.3181C38.0301 18.418 47.3958 18.4682 56.155 18.5982L56.1402 19.598ZM29.5601 19.2281L28.561 19.2708C28.3229 13.7041 20.299 13.7042 19.9683 19.1882L18.9701 19.128L17.9719 19.0679C18.4613 10.9519 30.2173 11.192 30.5592 19.1853L29.5601 19.2281ZM18.9701 19.128L19.9701 19.138C19.9552 20.6401 20.4854 21.708 21.2347 22.4142C21.9998 23.1353 23.0515 23.5324 24.1423 23.5622C25.2332 23.5919 26.3067 23.2526 27.1125 22.5746C27.9017 21.9105 28.491 20.8752 28.5612 19.3811L29.5601 19.428L30.559 19.4749C30.4641 21.4959 29.6384 23.0631 28.4001 24.1049C27.1785 25.1329 25.612 25.6029 24.0879 25.5614C22.5637 25.5199 21.0254 24.9651 19.863 23.8697C18.6848 22.7593 17.9501 21.146 17.9702 19.1181L18.9701 19.128ZM29.5601 19.428H28.5601V19.2281H29.5601H30.5601V19.428H29.5601ZM1.16107 71.0852L0.161102 71.0777C0.181091 68.4125 0.085968 61.2953 0.0331726 54.3203C-0.0192261 47.3978 -0.0314178 40.5408 0.165741 38.5087L1.16107 38.6052L2.1564 38.7018C1.97227 40.5996 1.98015 47.3076 2.03311 54.3051C2.08568 61.2501 2.18118 68.4079 2.16104 71.0927L1.16107 71.0852ZM1.16107 38.6052L0.165619 38.5099C0.304047 37.0639 0.518021 35.7263 0.867188 34.5872C1.2137 33.4567 1.71872 32.4363 2.49695 31.7128L3.17783 32.4452L3.8587 33.1776C3.44292 33.5641 3.07503 34.2087 2.77939 35.1733C2.4864 36.1291 2.289 37.3166 2.15652 38.7005L1.16107 38.6052ZM3.17783 32.4452L2.49071 31.7187C3.37628 30.8812 4.47316 30.5072 5.53682 30.3257C6.58522 30.1468 7.71236 30.1397 8.68147 30.1155L8.70638 31.1152L8.73128 32.1149C7.69366 32.1407 6.74382 32.1486 5.87329 32.2972C5.01802 32.4432 4.35397 32.7093 3.86494 33.1718L3.17783 32.4452ZM8.70638 31.1152L8.70442 30.1152C29.2034 30.0752 99.0232 30.1452 117.979 30.0752L117.983 31.0752L117.986 32.0752C99.0352 32.1452 29.1868 32.0752 8.70833 32.1152L8.70638 31.1152ZM117.983 31.0752L118.03 30.0764C119.489 30.1458 120.521 30.1509 121.275 30.0953C122.032 30.0394 122.438 29.9261 122.683 29.806C122.899 29.7003 123.05 29.5609 123.241 29.2954C123.344 29.1514 123.449 28.9844 123.585 28.7654C123.716 28.5537 123.871 28.3021 124.055 28.0281L124.885 28.5852L125.715 29.1423C125.556 29.3808 125.42 29.6001 125.285 29.819C125.154 30.0307 125.014 30.2541 124.866 30.4615C124.552 30.8988 124.166 31.3064 123.563 31.6019C122.99 31.883 122.295 32.0254 121.422 32.0898C120.545 32.1545 119.417 32.1446 117.935 32.0741L117.983 31.0752ZM124.885 28.5852L123.886 28.5417C124.03 25.2227 123.893 26.3569 123.885 22.0731L124.885 22.0712L125.885 22.0694C125.893 26.1389 126.03 25.2803 125.884 28.6287L124.885 28.5852ZM128.872 18.0852V17.0852H158.89V18.0852V19.0852H128.872V18.0852ZM124.885 22.0712L123.885 22.0731C123.88 19.3139 126.118 17.0852 128.872 17.0852V18.0852V19.0852C127.218 19.0852 125.882 20.4214 125.885 22.0694L124.885 22.0712ZM129.665 4.35535L130.665 4.34807C130.679 6.22216 129.418 7.59954 127.962 8.17833C126.506 8.75737 124.643 8.6216 123.363 7.24662L124.095 6.56534L124.827 5.88405C125.427 6.52908 126.359 6.66331 127.223 6.31986C128.087 5.97614 128.671 5.23854 128.665 4.36262L129.665 4.35535ZM124.095 6.56534L123.405 7.28891C122.372 6.30332 122.026 4.8917 122.215 3.62462C122.403 2.35569 123.147 1.10271 124.451 0.474401L124.885 1.37533L125.319 2.27627C124.713 2.56795 124.302 3.18498 124.193 3.91855C124.084 4.65397 124.298 5.37736 124.785 5.84177L124.095 6.56534ZM124.885 1.37533L124.395 0.503415C125.773 -0.270036 127.352 -0.0866758 128.544 0.609149C129.736 1.30496 130.672 2.58949 130.665 4.16965L129.665 4.16534L128.665 4.16103C128.668 3.4212 128.229 2.74072 127.536 2.33653C126.843 1.93235 126.027 1.8807 125.375 2.24725L124.885 1.37533ZM129.665 4.16534H130.665V4.35535H129.665H128.665V4.16534H129.665ZM128.685 6.56534L129.307 5.78265C129.91 6.26183 130.835 7.25278 131.857 8.37443C132.91 9.53101 134.121 10.8888 135.36 12.2056C136.6 13.5232 137.836 14.7652 138.923 15.6801C139.467 16.1379 139.951 16.4948 140.362 16.7361C140.794 16.99 141.049 17.0574 141.156 17.0624L141.11 18.0613L141.064 19.0603C140.469 19.0327 139.874 18.7687 139.35 18.461C138.804 18.1406 138.223 17.7056 137.635 17.2101C136.456 16.2182 135.156 14.9074 133.903 13.5761C132.65 12.2439 131.412 10.8564 130.378 9.72124C129.312 8.55114 128.51 7.70385 128.063 7.34802L128.685 6.56534ZM141.11 18.0613L141.12 17.0614C146.195 17.1114 155.607 17.0612 159.895 17.0813L159.89 18.0813L159.885 19.0813C155.653 19.0614 146.165 19.1112 141.1 19.0613L141.11 18.0613ZM183.36 25.0983L182.36 25.1055C182.347 23.2315 183.608 21.8541 185.063 21.2753C186.519 20.6962 188.382 20.832 189.662 22.207L188.93 22.8883L188.198 23.5696C187.598 22.9245 186.666 22.7903 185.802 23.1338C184.938 23.4775 184.354 24.2151 184.36 25.091L183.36 25.0983ZM188.93 22.8883L189.62 22.1647C190.654 23.1503 190.999 24.5619 190.811 25.829C190.622 27.0979 189.878 28.3509 188.574 28.9792L188.14 28.0783L187.706 27.1773C188.312 26.8857 188.723 26.2686 188.832 25.5351C188.941 24.7996 188.727 24.0763 188.24 23.6118L188.93 22.8883ZM188.14 28.0783L188.63 28.9502C187.252 29.7236 185.673 29.5403 184.481 28.8445C183.289 28.1486 182.353 26.8641 182.36 25.284L183.36 25.2883L184.36 25.2926C184.357 26.0324 184.797 26.7129 185.489 27.1171C186.182 27.5213 186.998 27.5729 187.65 27.2064L188.14 28.0783ZM183.36 25.2883H182.36V25.0983H183.36H184.36V25.2883H183.36ZM212.89 31.0683L212.877 32.0682C209.054 32.0192 201.641 32.1675 196.569 32.0078L196.6 31.0083L196.632 30.0088C201.719 30.169 208.926 30.0174 212.903 30.0683L212.89 31.0683ZM196.6 31.0083L196.406 31.9891C194.912 31.6928 193.593 30.841 192.428 29.967C191.189 29.0382 190.187 28.1433 189.048 27.4085L189.59 26.5683L190.132 25.728C191.334 26.5032 192.576 27.5784 193.628 28.367C194.752 29.2105 195.768 29.8237 196.795 30.0274L196.6 31.0083ZM184.41 22.7383L183.788 23.521C183.214 23.0644 182.676 22.5379 182.174 22.0351C181.659 21.5196 181.186 21.0337 180.691 20.5923C179.701 19.7099 178.782 19.1562 177.724 19.1072L177.77 18.1083L177.816 17.1093C179.568 17.1904 180.919 18.1167 182.022 19.0993C182.573 19.5903 183.101 20.1332 183.59 20.622C184.09 21.1236 184.557 21.5772 185.033 21.9556L184.41 22.7383ZM177.77 18.1083L177.76 19.1082C172.685 19.0582 163.273 19.1084 158.986 19.0883L158.99 18.0883L158.995 17.0883C163.228 17.1082 172.715 17.0584 177.78 17.1083L177.77 18.1083Z" fill="url(#paint0_linear_2028_6493)"/>
<defs>
<linearGradient id="paint0_linear_2028_6493" x1="209.39" y1="31.0852" x2="0.890139" y2="67.0852" gradientUnits="userSpaceOnUse">
<stop stop-color="#FF6FFF" stop-opacity="0"/>
<stop offset="0.0817308" stop-color="#FF6FFF" stop-opacity="0.25"/>
<stop offset="0.217939" stop-color="white"/>
<stop offset="0.453301" stop-color="#FF6FFF" stop-opacity="0.25"/>
<stop offset="0.850962" stop-color="#6ECBF6" stop-opacity="0.1"/>
<stop offset="1" stop-color="#6ECBF6" stop-opacity="0"/>
</linearGradient>
</defs>
</svg>
